<svg height="216" preserveAspectRatio="xMidYMid" viewBox="0 0 216 216" width="216" xmlns="http://www.w3.org/2000/svg"><g fill-rule="evenodd"><path d="m156.762 215.53h41.351c7.893 0 17.432-6.554 17.432-14.696v-186.14c0-8.143-9.539-14.696-17.432-14.696h-186.149c-8.83 0-11.959 7.911-11.959 14.696v186.14c0 6.784 3.129 14.696 11.959 14.696h105.608v-78.376h-34.29c-2.708 0-4.899-2.19-4.899-4.897v-29.391c0-2.708 2.191-4.899 4.899-4.899h34.29v-34.289c0-23.899 21.183-44.086 46.25-44.086h27.23c2.708 0 4.899 2.189 4.899 4.897v29.391c0 2.709-2.191 4.9-4.899 4.9h-17.432c-8.286 0-16.858 4.582-16.858 12.246v26.941h31.554c1.578 0 3.051.756 3.971 2.037.927 1.273 1.176 2.92.678 4.412 0 0-9.797 29.391-9.797 29.391-.669 1.998-2.545 3.347-4.65 3.347h-21.756z" fill="#2476ff"/><path d="m178.91 93.264h-22.148v4.703h27.012c-.039-.948-.319-1.878-.893-2.665-.918-1.282-2.392-2.038-3.971-2.038z" opacity=".35"/><path d="m108.167 210.828h-105.408c1.889 2.766 4.848 4.702 9.205 4.702h105.608v-78.376h-9.405z" opacity=".35"/><path d="m186.506 19.592c-.108-2.611-2.221-4.702-4.859-4.702h-27.23c-25.067 0-46.25 20.185-46.25 44.085v34.289h-34.29c-2.709 0-4.899 2.192-4.899 4.9v29.39c0 2.708 2.19 4.899 4.899 4.899h4.546c-.003-.07-.04-.128-.04-.196v-29.391c0-2.708 2.191-4.899 4.899-4.899h34.29v-34.289c0-23.899 21.183-44.086 46.25-44.086z" opacity=".35"/><path d="m201.141.298c2.94 2.589 4.999 5.953 4.999 9.693v186.141c0 8.142-9.539 14.696-17.433 14.696h-31.945v4.702h41.351c7.893 0 17.432-6.554 17.432-14.696v-186.14c0-7.121-7.294-13.025-14.404-14.396z" opacity=".35"/></g></svg>